<svg width="18" height="18" viewBox="0 0 18 18" fill="none" xmlns="http://www.w3.org/2000/svg">
<path d="M7.33329 13.1666L3.16663 8.99996L4.34163 7.81663L7.33329 10.8083L13.6583 4.48329L14.8333 5.66663M8.99996 0.666626C7.90561 0.666626 6.82198 0.882174 5.81093 1.30096C4.79988 1.71975 3.88122 2.33358 3.1074 3.1074C1.5446 4.67021 0.666626 6.78982 0.666626 8.99996C0.666626 11.2101 1.5446 13.3297 3.1074 14.8925C3.88122 15.6663 4.79988 16.2802 5.81093 16.699C6.82198 17.1177 7.90561 17.3333 8.99996 17.3333C11.2101 17.3333 13.3297 16.4553 14.8925 14.8925C16.4553 13.3297 17.3333 11.2101 17.3333 8.99996C17.3333 7.90561 17.1177 6.82198 16.699 5.81093C16.2802 4.79988 15.6663 3.88122 14.8925 3.1074C14.1187 2.33358 13.2 1.71975 12.189 1.30096C11.1779 0.882174 10.0943 0.666626 8.99996 0.666626V0.666626Z" fill="#00B407"/>
</svg>
